<?xml version="1.0" encoding="UTF-8"?>
<!-- Generator: visioncortex VTracer 0.6.5 -->
<svg version="1.1" xmlns="http://www.w3.org/2000/svg" width="1152" height="768" viewBox="0 0 1152 768">
<path d="M0,0 L34,0 L54,1 L82,5 L97,9 L106,15 L115,25 L127,33 L131,37 L141,45 L152,53 L161,60 L172,69 L182,76 L205,82 L220,88 L224,93 L224,98 L244,100 L251,101 L290,103 L343,109 L362,112 L424,121 L455,128 L473,133 L491,140 L500,144 L502,145 L502,147 L506,148 L519,157 L524,162 L524,164 L528,166 L533,171 L540,175 L540,179 L549,180 L554,186 L559,189 L562,193 L563,202 L558,208 L549,214 L543,222 L542,224 L544,225 L540,231 L530,240 L525,243 L513,249 L496,255 L485,257 L481,256 L501,250 L511,246 L521,241 L531,234 L536,230 L538,227 L540,220 L545,211 L551,209 L551,207 L559,202 L558,196 L549,186 L542,182 L455,182 L454,179 L516,177 L536,179 L535,177 L528,173 L524,167 L519,162 L508,153 L500,149 L485,141 L463,134 L439,128 L431,126 L418,124 L416,123 L400,121 L386,119 L376,118 L374,117 L352,114 L332,111 L313,109 L309,108 L278,105 L275,104 L274,106 L273,105 L266,105 L262,106 L252,105 L238,104 L225,101 L220,101 L220,98 L213,98 L214,104 L211,104 L211,102 L208,102 L204,96 L202,95 L203,103 L200,102 L200,95 L196,93 L187,86 L182,83 L182,80 L178,78 L172,74 L156,61 L146,53 L132,42 L119,32 L113,28 L113,26 L109,24 L102,23 L97,22 L97,36 L103,48 L113,64 L131,94 L137,102 L149,102 L155,101 L197,101 L197,104 L168,105 L157,106 L155,107 L135,107 L130,102 L114,76 L106,63 L98,50 L92,39 L90,34 L86,32 L81,29 L74,27 L61,25 L48,23 L33,22 L-6,22 L-30,24 L-46,28 L-51,31 L-55,38 L-58,48 L-66,79 L-71,99 L-72,105 L-70,105 L-69,97 L-65,83 L-60,62 L-54,40 L-49,32 L-42,28 L-32,26 L-10,24 L35,24 L58,26 L78,30 L84,34 L90,41 L101,60 L109,73 L117,86 L127,103 L128,107 L132,109 L140,116 L146,124 L151,127 L173,128 L182,129 L226,129 L234,132 L238,142 L238,186 L235,219 L232,220 L234,184 L235,173 L235,150 L232,136 L230,134 L222,132 L153,131 L146,128 L130,111 L126,110 L120,110 L119,107 L116,106 L112,98 L110,97 L110,106 L109,107 L97,107 L98,94 L101,96 L101,101 L99,105 L104,104 L105,98 L107,94 L106,89 L101,82 L98,76 L98,73 L96,73 L92,66 L92,64 L89,65 L85,54 L79,45 L75,44 L73,40 L68,38 L68,40 L70,41 L63,42 L51,41 L40,40 L39,38 L61,38 L61,36 L38,35 L-18,35 L-32,36 L-42,39 L-45,43 L-49,59 L-54,77 L-57,88 L-60,104 L-62,104 L-61,106 L-48,106 L-46,92 L-41,74 L-37,58 L-31,47 L-20,41 L-9,40 L-7,39 L14,39 L15,41 L-2,42 L-20,45 L-29,50 L-33,59 L-36,71 L-40,92 L-42,103 L-46,107 L-49,109 L-67,109 L-67,107 L-72,109 L-73,113 L-73,124 L-63,154 L-59,162 L-54,176 L-48,193 L-40,209 L-32,216 L-32,218 L-30,219 L-35,218 L-42,212 L-48,202 L-52,193 L-56,180 L-61,168 L-67,153 L-71,140 L-75,130 L-77,121 L-77,113 L-75,98 L-70,80 L-62,50 L-57,34 L-50,26 L-42,23 L-23,20 L1,18 L24,18 L51,20 L61,21 L70,23 L79,25 L87,28 L92,33 L91,26 L95,18 L102,19 L102,21 L105,21 L102,16 L95,12 L78,8 L61,5 L34,3 L0,3 L-43,6 L-53,8 L-64,9 L-84,13 L-101,17 L-104,20 L-109,23 L-112,26 L-126,33 L-133,36 L-134,38 L-132,39 L-136,40 L-136,38 L-145,44 L-156,50 L-167,57 L-176,63 L-191,73 L-203,81 L-208,85 L-210,84 L-210,86 L-215,89 L-218,88 L-219,93 L-214,93 L-214,91 L-186,94 L-166,94 L-154,83 L-149,79 L-148,77 L-162,88 L-165,91 L-168,92 L-190,92 L-198,90 L-198,89 L-166,88 L-156,79 L-145,70 L-134,59 L-125,52 L-115,43 L-111,38 L-109,30 L-108,30 L-108,36 L-109,38 L-107,37 L-105,23 L-103,21 L-102,23 L-103,35 L-108,45 L-117,55 L-128,65 L-139,74 L-144,78 L-149,83 L-161,94 L-165,97 L-167,97 L-168,100 L-183,100 L-184,97 L-189,98 L-202,96 L-221,95 L-221,92 L-225,91 L-227,90 L-227,92 L-237,93 L-246,95 L-274,99 L-283,105 L-288,103 L-289,106 L-301,107 L-338,113 L-350,115 L-367,118 L-380,121 L-389,125 L-393,129 L-395,134 L-394,139 L-389,149 L-384,154 L-379,162 L-375,168 L-376,171 L-379,168 L-379,165 L-381,165 L-380,172 L-369,174 L-372,167 L-373,162 L-373,152 L-371,145 L-377,144 L-386,142 L-392,139 L-392,137 L-386,138 L-375,141 L-365,140 L-346,139 L-337,138 L-336,140 L-341,142 L-361,143 L-367,144 L-369,152 L-369,164 L-366,173 L-366,176 L-376,176 L-386,174 L-386,180 L-385,185 L-393,184 L-402,187 L-405,187 L-401,197 L-392,210 L-385,217 L-374,224 L-364,231 L-353,236 L-340,241 L-336,243 L-335,240 L-330,239 L-323,239 L-325,241 L-333,243 L-333,245 L-320,244 L-309,242 L-297,242 L-297,245 L-281,247 L-274,248 L-273,252 L-271,252 L-271,244 L-276,245 L-286,244 L-295,242 L-296,235 L-292,231 L-283,225 L-280,221 L-274,199 L-272,194 L-270,183 L-268,181 L-266,173 L-255,162 L-244,158 L-234,156 L-216,155 L-183,155 L-165,156 L-144,159 L-132,164 L-121,174 L-115,186 L-112,193 L-105,214 L-101,224 L-96,243 L-92,251 L-92,253 L-39,256 L59,258 L67,259 L107,260 L109,261 L109,264 L111,264 L111,260 L283,260 L290,257 L292,252 L297,225 L300,213 L303,204 L306,197 L304,196 L308,193 L311,184 L318,173 L323,167 L331,161 L343,155 L351,153 L367,152 L384,152 L401,153 L420,156 L431,160 L442,167 L452,180 L458,190 L466,206 L473,225 L477,244 L479,249 L484,249 L484,252 L477,254 L463,254 L463,251 L463,237 L460,221 L458,218 L457,210 L455,210 L447,197 L445,192 L441,190 L432,180 L418,171 L408,168 L408,166 L391,163 L367,163 L367,161 L390,160 L391,158 L393,158 L393,161 L400,161 L414,165 L420,168 L425,170 L429,174 L426,169 L426,167 L428,167 L434,174 L434,176 L438,177 L445,185 L442,186 L451,197 L454,201 L458,209 L461,216 L463,222 L465,222 L465,214 L464,208 L460,209 L460,207 L462,207 L462,205 L459,204 L458,196 L454,197 L452,187 L449,187 L445,177 L439,171 L439,169 L436,169 L436,166 L433,167 L433,165 L430,165 L429,163 L414,161 L416,160 L416,158 L411,158 L410,160 L410,158 L400,157 L393,156 L360,156 L342,158 L342,160 L335,162 L333,166 L329,170 L326,171 L323,176 L320,179 L314,189 L310,199 L308,204 L308,206 L306,206 L305,216 L303,220 L302,225 L300,228 L304,229 L305,221 L307,212 L312,202 L314,197 L322,189 L326,182 L330,182 L331,179 L335,178 L333,182 L331,185 L334,186 L334,188 L330,191 L329,194 L325,197 L323,197 L322,203 L320,203 L319,208 L312,220 L311,216 L314,210 L315,205 L317,205 L318,201 L315,202 L312,208 L307,225 L305,238 L303,242 L306,242 L307,237 L308,237 L308,246 L307,249 L305,249 L306,243 L304,243 L305,258 L307,258 L308,254 L310,255 L309,261 L307,261 L310,271 L317,284 L330,294 L330,296 L332,296 L331,291 L337,289 L337,291 L334,294 L339,294 L344,293 L339,299 L347,299 L347,305 L351,305 L351,302 L361,301 L365,304 L371,304 L373,305 L397,305 L405,303 L414,299 L417,298 L418,294 L422,292 L427,287 L430,281 L432,282 L432,284 L437,284 L436,280 L443,260 L447,252 L448,237 L446,227 L455,227 L453,222 L444,221 L444,212 L449,211 L449,208 L446,207 L446,205 L443,204 L441,197 L437,195 L432,190 L430,194 L428,194 L428,192 L430,191 L430,187 L427,186 L426,182 L429,179 L433,186 L438,191 L443,194 L449,205 L453,211 L456,215 L451,215 L451,212 L447,215 L447,219 L455,219 L458,226 L460,236 L460,267 L457,272 L449,289 L437,301 L429,306 L428,308 L432,309 L428,311 L427,309 L421,311 L419,313 L410,314 L410,312 L407,313 L391,313 L376,311 L377,315 L364,314 L359,313 L357,313 L356,316 L356,313 L352,314 L345,311 L340,306 L333,302 L327,302 L325,299 L330,300 L329,296 L324,294 L317,289 L317,287 L313,285 L301,269 L298,267 L298,270 L293,269 L292,265 L289,264 L289,262 L283,263 L283,265 L286,266 L281,269 L262,269 L248,271 L235,272 L202,272 L198,272 L188,273 L130,273 L94,272 L63,270 L20,269 L8,269 L-3,268 L-12,268 L-13,269 L-21,269 L-28,266 L-28,269 L-32,269 L-32,266 L-37,267 L-39,266 L-38,269 L-41,269 L-41,267 L-44,269 L-59,269 L-58,266 L-67,267 L-78,266 L-78,268 L-81,268 L-81,266 L-90,266 L-92,269 L-98,269 L-97,265 L-102,265 L-102,261 L-92,262 L-86,263 L-87,260 L-96,257 L-95,254 L-98,254 L-99,251 L-97,246 L-99,246 L-101,234 L-104,235 L-106,230 L-104,230 L-106,221 L-106,217 L-108,217 L-108,222 L-110,223 L-113,218 L-113,216 L-111,216 L-112,212 L-109,212 L-114,200 L-116,199 L-116,201 L-119,200 L-119,198 L-116,195 L-118,194 L-116,194 L-117,189 L-119,188 L-118,186 L-121,187 L-122,186 L-123,179 L-125,174 L-128,174 L-130,169 L-134,167 L-138,166 L-138,164 L-141,164 L-141,166 L-147,165 L-144,164 L-144,162 L-155,161 L-180,161 L-180,163 L-173,163 L-169,165 L-169,167 L-167,167 L-167,164 L-163,166 L-159,168 L-161,164 L-156,166 L-148,167 L-149,170 L-145,170 L-142,175 L-137,177 L-137,175 L-140,174 L-143,170 L-138,171 L-136,174 L-134,182 L-132,186 L-128,188 L-122,195 L-125,195 L-130,191 L-123,199 L-118,205 L-119,207 L-121,203 L-123,203 L-120,209 L-120,211 L-116,212 L-116,214 L-118,214 L-115,219 L-113,224 L-115,224 L-114,228 L-114,235 L-112,235 L-113,228 L-109,232 L-111,233 L-110,237 L-110,260 L-111,262 L-109,262 L-110,267 L-111,269 L-114,269 L-113,272 L-115,276 L-115,280 L-113,280 L-112,273 L-109,272 L-109,270 L-107,270 L-107,266 L-103,266 L-103,271 L-100,270 L-102,274 L-107,279 L-112,284 L-123,291 L-130,295 L-138,298 L-149,306 L-150,308 L-143,307 L-148,311 L-152,312 L-152,309 L-156,311 L-177,311 L-190,309 L-190,311 L-187,312 L-190,313 L-197,312 L-200,310 L-200,312 L-207,313 L-227,313 L-229,311 L-224,311 L-224,308 L-229,308 L-231,306 L-236,304 L-243,298 L-243,296 L-247,294 L-258,280 L-263,270 L-263,267 L-265,267 L-264,272 L-267,271 L-267,266 L-265,266 L-266,257 L-264,257 L-264,255 L-266,255 L-265,237 L-264,234 L-261,234 L-259,230 L-256,230 L-258,235 L-260,237 L-262,236 L-263,243 L-261,243 L-259,239 L-259,244 L-263,246 L-261,259 L-258,257 L-255,257 L-257,261 L-260,260 L-259,265 L-255,263 L-252,263 L-252,265 L-257,266 L-256,272 L-253,269 L-250,269 L-250,274 L-254,273 L-256,278 L-250,276 L-244,278 L-244,280 L-249,279 L-249,286 L-247,291 L-245,291 L-244,293 L-240,292 L-239,290 L-235,290 L-234,288 L-228,292 L-222,295 L-221,301 L-217,303 L-217,305 L-219,305 L-219,307 L-215,307 L-214,301 L-219,300 L-219,298 L-214,299 L-212,294 L-211,294 L-209,301 L-200,302 L-197,304 L-197,302 L-190,303 L-190,305 L-187,303 L-176,301 L-166,297 L-153,289 L-152,286 L-147,283 L-145,283 L-146,280 L-140,276 L-136,272 L-135,269 L-138,268 L-136,265 L-134,265 L-133,252 L-132,245 L-131,243 L-131,232 L-132,223 L-133,216 L-128,216 L-128,225 L-125,224 L-126,217 L-128,210 L-136,214 L-142,202 L-142,200 L-146,198 L-146,195 L-149,194 L-151,191 L-154,190 L-159,185 L-162,183 L-162,181 L-166,182 L-169,181 L-169,179 L-183,176 L-181,173 L-179,173 L-179,171 L-187,171 L-191,170 L-190,174 L-196,175 L-202,176 L-202,173 L-193,173 L-196,170 L-207,171 L-212,168 L-220,168 L-229,175 L-239,181 L-246,188 L-247,192 L-252,193 L-253,198 L-258,203 L-262,209 L-264,209 L-264,211 L-261,212 L-267,220 L-270,221 L-270,223 L-266,224 L-268,231 L-268,259 L-272,260 L-275,254 L-275,252 L-287,249 L-299,247 L-337,248 L-351,245 L-361,241 L-357,240 L-350,242 L-350,240 L-358,238 L-368,233 L-376,227 L-383,222 L-389,220 L-392,217 L-393,214 L-398,211 L-405,201 L-408,194 L-408,186 L-403,182 L-398,181 L-398,178 L-403,178 L-405,175 L-406,167 L-404,167 L-404,160 L-406,160 L-404,149 L-400,144 L-398,144 L-399,142 L-399,132 L-397,132 L-396,126 L-390,121 L-377,116 L-352,111 L-311,105 L-286,101 L-275,96 L-255,92 L-245,91 L-222,88 L-215,85 L-211,82 L-208,82 L-208,80 L-172,56 L-149,42 L-133,33 L-123,27 L-112,21 L-103,14 L-87,10 L-80,8 L-62,5 L-50,4 L-47,3 L-23,1 Z M-5,26 L-36,29 L-46,32 L-47,35 L-49,35 L-53,42 L-57,60 L-61,75 L-66,96 L-68,102 L-68,106 L-63,105 L-59,85 L-57,79 L-53,62 L-47,41 L-42,36 L-28,33 L8,31 L33,31 L35,32 L58,34 L72,37 L80,41 L97,69 L116,101 L122,108 L125,108 L124,103 L110,79 L102,66 L96,56 L95,53 L93,53 L91,48 L84,37 L77,32 L63,29 L38,27 L32,26 Z M65,37 L65,39 L67,39 L67,37 Z M-112,42 L-112,44 L-110,44 L-110,42 Z M-114,45 L-114,47 L-112,47 L-112,45 Z M-117,48 L-120,51 L-120,53 L-116,51 L-115,48 Z M-123,53 L-134,63 L-142,70 L-145,73 L-145,75 L-141,73 L-130,63 L-127,61 L-127,59 L-123,57 L-121,53 Z M-147,75 L-147,77 L-145,77 L-145,75 Z M184,80 L185,83 L190,84 L190,86 L196,90 L200,94 L202,94 L202,91 L205,91 L213,95 L218,97 L222,97 L221,92 L217,89 L207,86 L200,83 L192,81 L190,80 Z M106,102 L106,104 L108,104 L108,102 Z M-396,145 L-399,148 L-401,149 L-401,174 L-400,175 L-395,175 L-394,179 L-391,179 L-389,170 L-390,159 L-391,154 L-393,153 L-393,147 L-394,145 Z M-390,152 L-387,164 L-387,173 L-382,173 L-383,162 L-388,152 Z M-230,158 L-230,160 L-226,160 L-226,158 Z M-223,158 L-223,160 L-213,160 L-213,158 Z M-212,158 L-212,160 L-202,160 L-202,158 Z M-200,158 L-200,160 L-178,160 L-178,158 Z M-177,158 L-177,160 L-173,160 L-173,158 Z M-240,160 L-247,162 L-249,163 L-249,165 L-251,165 L-251,167 L-253,167 L-254,169 L-258,170 L-263,178 L-268,194 L-270,196 L-270,201 L-271,202 L-273,211 L-276,222 L-275,224 L-277,224 L-278,228 L-283,229 L-286,231 L-286,234 L-284,234 L-284,236 L-291,234 L-291,239 L-286,241 L-274,242 L-272,237 L-282,237 L-276,230 L-271,222 L-271,219 L-268,218 L-266,213 L-268,213 L-269,211 L-267,211 L-264,203 L-259,197 L-259,195 L-255,193 L-251,187 L-248,187 L-244,180 L-233,174 L-228,170 L-228,168 L-222,166 L-218,164 L-212,165 L-208,168 L-200,169 L-201,165 L-209,162 L-211,161 Z M-204,161 L-203,164 L-194,168 L-192,168 L-191,166 L-186,168 L-184,166 L-182,168 L-176,168 L-174,170 L-167,172 L-158,176 L-153,180 L-151,180 L-152,175 L-157,171 L-164,168 L-172,167 L-172,165 L-178,164 L-181,164 L-181,162 L-193,161 L-194,163 L-195,162 Z M-178,172 L-178,174 L-173,176 L-169,176 L-169,179 L-161,179 L-161,182 L-152,188 L-147,188 L-149,184 L-153,183 L-158,178 L-167,174 L-173,172 Z M-150,176 L-149,182 L-146,185 L-141,188 L-136,194 L-134,194 L-132,201 L-128,206 L-124,217 L-123,221 L-120,233 L-120,256 L-116,256 L-116,247 L-115,239 L-119,217 L-125,204 L-128,200 L-130,200 L-130,194 L-135,189 L-142,182 L-145,179 L-147,179 L-148,176 Z M-390,179 L-390,181 L-388,181 L-388,179 Z M-141,179 L-139,183 L-136,184 L-138,180 Z M-396,180 L-396,182 L-394,182 L-394,180 Z M327,186 L320,194 L320,196 L318,196 L318,199 L322,197 L323,194 L328,192 L329,186 Z M-145,188 L-145,191 L-147,191 L-147,193 L-142,193 L-143,188 Z M-142,193 L-143,198 L-137,197 L-137,194 Z M-137,198 L-140,200 L-140,203 L-133,203 L-135,198 Z M-134,204 L-136,206 L-136,209 L-130,209 L-131,204 Z M467,222 L467,226 L465,227 L466,232 L468,237 L466,237 L466,239 L468,239 L467,246 L467,249 L467,251 L477,251 L475,247 L473,247 L473,249 L471,249 L471,242 L473,242 L472,237 L470,224 L469,222 Z M-272,225 L-273,229 L-271,229 L-270,225 Z M-126,227 L-128,228 L-128,234 L-121,233 L-123,227 Z M301,230 L301,234 L303,234 L303,230 Z M450,230 L449,234 L453,235 L456,234 L456,230 Z M-274,231 L-277,232 L-277,235 L-272,234 L-272,231 Z M298,234 L298,237 L300,237 L300,234 Z M-125,236 L-128,237 L-128,242 L-121,242 L-121,236 Z M453,237 L450,238 L450,241 L458,241 L457,237 Z M297,238 L297,243 L299,243 L299,238 Z M-344,242 L-344,244 L-342,244 L-342,242 Z M300,242 L298,246 L296,246 L297,254 L294,255 L294,258 L291,259 L293,264 L294,266 L296,266 L297,264 L299,264 L299,255 L301,252 L302,242 Z M451,243 L450,247 L451,251 L456,250 L457,244 L454,245 L453,243 Z M-126,244 L-129,245 L-129,250 L-127,250 L-127,247 L-122,248 L-121,244 Z M-114,244 L-114,246 L-112,246 L-112,244 Z M-129,251 L-128,256 L-123,256 L-122,251 Z M449,253 L449,259 L446,260 L442,270 L442,275 L445,275 L449,268 L451,267 L444,278 L441,284 L437,285 L437,289 L435,289 L435,286 L432,286 L432,293 L429,293 L427,293 L427,298 L424,301 L423,297 L420,297 L421,307 L425,306 L425,303 L427,303 L428,301 L432,299 L432,297 L435,296 L439,290 L441,289 L441,287 L445,285 L446,282 L448,281 L449,276 L451,275 L454,267 L454,262 L451,260 L452,257 L457,256 L457,253 Z M-115,254 L-119,270 L-115,268 L-113,261 L-113,254 Z M-83,257 L-83,259 L-73,260 L-70,261 L-66,261 L-57,261 L-52,262 L-52,260 L-46,262 L-46,260 L-40,262 L-33,263 L-34,259 L-49,258 L-60,258 L-61,257 Z M302,258 L301,263 L303,263 L303,266 L305,266 L305,260 L304,258 Z M-130,259 L-130,263 L-125,264 L-124,259 Z M-122,259 L-125,268 L-128,274 L-130,276 L-130,281 L-132,281 L-132,283 L-127,282 L-121,271 L-119,264 L-119,259 Z M-33,259 L-33,261 L-28,262 L-28,259 Z M-27,259 L-27,261 L-21,263 L-16,262 L-16,259 Z M-15,259 L-15,261 L-13,261 L-13,259 Z M-12,259 L-12,265 L-10,265 L-7,262 L-7,259 Z M-3,260 L-3,262 L-1,262 L-1,260 Z M4,260 L4,262 L7,262 L7,260 Z M26,260 L26,262 L29,262 L29,260 Z M33,260 L33,262 L35,262 L35,260 Z M-83,261 L-83,264 L-80,264 L-81,261 Z M30,261 L30,266 L33,266 L32,261 Z M36,261 L36,266 L39,266 L38,261 Z M42,261 L42,266 L45,266 L44,261 Z M-5,262 L-6,265 L-3,264 L-3,262 Z M48,262 L48,266 L52,265 L52,263 Z M54,262 L54,266 L57,266 L57,262 Z M60,262 L60,266 L62,266 L62,262 Z M63,262 L63,264 L68,265 L68,262 Z M69,262 L69,264 L74,264 L74,262 Z M-19,263 L-19,265 L-17,265 L-17,263 Z M1,262 L-2,263 L-2,265 L3,264 L3,262 Z M5,263 L5,265 L20,266 L20,263 Z M121,263 L121,265 L131,265 L131,263 Z M132,263 L132,265 L185,266 L246,266 L255,267 L254,263 Z M264,263 L264,266 L272,266 L273,263 Z M275,263 L275,265 L280,265 L280,263 Z M24,264 L24,266 L26,266 L26,264 Z M84,264 L84,266 L86,266 L86,264 Z M-53,265 L-54,268 L-51,267 L-51,265 Z M90,265 L89,268 L93,269 L92,265 Z M96,265 L97,269 L101,267 L101,265 Z M-129,265 L-129,267 L-133,266 L-134,269 L-132,269 L-132,272 L-129,272 L-127,268 L-127,265 Z M84,267 L84,269 L86,269 L86,267 Z M102,267 L102,269 L105,269 L105,267 Z M109,267 L109,269 L111,269 L111,267 Z M115,267 L115,269 L117,269 L117,267 Z M127,267 L127,269 L129,269 L129,267 Z M139,268 L139,270 L141,270 L141,268 Z M145,268 L145,270 L148,270 L148,268 Z M-120,271 L-123,282 L-126,283 L-127,287 L-120,286 L-118,281 L-118,275 L-118,271 Z M-108,272 L-110,276 L-106,276 L-105,272 Z M-137,275 L-136,281 L-133,281 L-132,275 Z M440,275 L438,279 L438,283 L440,283 L442,279 L442,275 Z M-139,277 L-141,281 L-137,280 L-137,277 Z M-117,280 L-118,283 L-115,282 L-115,280 Z M-138,281 L-138,284 L-145,284 L-145,288 L-151,290 L-151,294 L-153,294 L-153,297 L-149,296 L-148,292 L-147,294 L-143,293 L-143,289 L-138,287 L-136,284 L-136,281 Z M-132,284 L-140,290 L-143,295 L-150,298 L-150,302 L-147,302 L-145,299 L-140,297 L-139,293 L-134,292 L-134,289 L-130,287 L-130,284 Z M429,287 L429,290 L431,290 L431,287 Z M444,288 L444,290 L446,290 L446,288 Z M-130,290 L-130,292 L-128,292 L-128,290 Z M440,290 L439,293 L443,292 L443,290 Z M-235,292 L-237,293 L-236,298 L-233,299 L-233,296 L-230,295 L-230,293 Z M423,294 L423,296 L425,296 L425,294 Z M-228,295 L-231,299 L-231,302 L-227,301 L-226,295 Z M-156,295 L-157,301 L-153,299 L-154,295 Z M-160,296 L-162,298 L-162,302 L-160,302 L-158,299 L-158,296 Z M333,297 L334,300 L339,303 L341,303 L340,300 L336,297 Z M-166,300 L-169,302 L-169,307 L-165,307 L-163,307 L-162,309 L-156,308 L-150,304 L-150,302 L-157,303 L-163,305 L-163,300 Z M417,300 L417,302 L413,302 L411,311 L416,310 L418,305 L419,300 Z M-226,302 L-226,304 L-222,304 L-222,302 Z M-160,302 L-160,304 L-158,304 L-158,302 Z M-210,303 L-211,307 L-210,309 L-208,309 L-207,304 Z M-175,303 L-183,305 L-183,307 L-176,308 L-172,307 L-172,303 Z M359,303 L353,306 L352,311 L358,310 L359,307 L363,306 L363,304 Z M-225,305 L-225,307 L-222,307 L-222,305 Z M-203,305 L-203,307 L-200,307 L-200,305 Z M-195,305 L-195,307 L-191,308 L-190,305 Z M345,305 L346,308 L348,308 L347,305 Z M407,305 L404,306 L403,310 L408,309 L410,305 Z M366,306 L365,312 L369,311 L370,306 Z M398,307 L397,310 L401,310 L401,307 Z M-215,308 L-217,309 L-217,311 L-212,310 L-212,308 Z M-206,308 L-206,310 L-200,310 L-200,308 Z " fill="#adb5bd" transform="translate(512,269)"/>
<path d="M0,0 L1,2 L1,9 L4,14 L6,15 L7,11 L11,17 L13,27 L19,32 L19,37 L28,51 L33,59 L33,62 L35,62 L35,64 L48,61 L56,57 L65,55 L68,54 L67,58 L56,61 L47,65 L38,65 L41,71 L50,70 L55,71 L51,73 L40,74 L36,70 L25,53 L19,43 L10,28 L6,21 L-1,10 L-3,7 L-3,4 L-1,4 Z M7,17 L7,19 L9,19 L9,17 Z " fill="#adb5bd" transform="translate(613,296)"/>
<path d="M0,0 L7,1 L7,3 L11,5 L21,13 L33,22 L46,32 L52,36 L57,40 L57,42 L53,40 L45,36 L34,28 L23,19 L13,11 L13,9 L9,8 L9,6 L5,4 L0,2 Z " fill="#adb5bd" transform="translate(618,301)"/>
<path d="M0,0 L2,0 L2,12 L-3,28 L-6,33 L-7,29 L-5,22 L-2,15 L-1,14 L0,5 L-11,6 L-17,8 L-20,19 L-28,47 L-31,56 L-28,54 L-25,46 L-24,46 L-24,57 L-26,58 L-27,63 L-22,63 L-23,58 L-21,51 L-17,37 L-14,28 L-14,25 L-19,23 L-15,10 L-13,9 L-13,15 L-15,19 L-15,22 L-12,23 L-9,10 L-6,7 L-7,16 L-12,34 L-18,55 L-21,63 L-16,61 L-15,65 L-22,67 L-30,63 L-35,61 L-32,47 L-25,24 L-20,8 L-17,5 L-10,2 L0,2 Z M-32,58 L-31,61 L-29,61 L-30,58 Z " fill="#adb5bd" transform="translate(448,302)"/>
<path d="M0,0 L7,6 L7,8 L9,8 L13,13 L23,21 L24,23 L20,22 L12,16 L6,11 L0,2 Z " fill="#adb5bd" transform="translate(627,314)"/>
<path d="M0,0 L2,0 L7,10 L9,16 L11,20 L10,23 L5,16 L1,6 L0,5 Z " fill="#adb5bd" transform="translate(587,317)"/>
<path d="M0,0 L7,1 L12,4 L15,8 L18,9 L17,12 L12,10 L10,6 L5,4 L-4,4 L-16,9 L-22,9 L-19,6 L-5,1 Z " fill="#adb5bd" transform="translate(687,355)"/>
<path d="M0,0 L6,1 L8,11 L9,15 L0,14 L1,10 L5,12 L2,6 L3,3 L0,4 Z " fill="#adb5bd" transform="translate(598,361)"/>
<path d="M0,0 L4,2 L4,5 L-5,7 L-14,8 L-15,4 L-17,2 L-12,3 L-8,4 L-1,2 Z " fill="#adb5bd" transform="translate(282,365)"/>
<path d="M0,0 L8,1 L12,0 L14,1 L47,2 L46,4 L-3,4 L-6,2 Z " fill="#adb5bd" transform="translate(494,371)"/>
<path d="M0,0 L14,0 L17,2 L2,3 L0,5 L-1,9 L10,9 L10,11 L0,11 L-5,9 L-5,7 L-3,7 L-3,5 L-5,5 L-5,3 Z " fill="#adb5bd" transform="translate(446,380)"/>
<path d="M0,0 L25,0 L34,1 L35,3 L4,4 L4,2 L0,1 Z " fill="#adb5bd" transform="translate(452,385)"/>
<path d="M0,0 L26,2 L36,6 L30,14 L25,19 L22,22 L20,22 L20,24 L18,24 L17,27 L15,27 L16,22 L27,13 L30,10 L31,6 L24,5 L24,7 L27,8 L27,11 L24,11 L23,6 L9,4 L-2,4 L-3,7 L-16,17 L-23,18 L-31,18 L-31,16 L-20,15 L-14,12 L-7,5 L-3,3 Z " fill="#adb5bd" transform="translate(223,405)"/>
<path d="M0,0 L5,5 L9,10 L9,12 L13,14 L18,16 L18,13 L16,12 L20,13 L21,15 L19,15 L22,18 L32,23 L33,21 L37,25 L37,27 L41,29 L44,31 L44,33 L40,32 L29,25 L19,20 L9,15 L3,8 L0,3 Z " fill="#adb5bd" transform="translate(991,412)"/>
<path d="M0,0 L22,0 L26,1 L45,2 L49,4 L49,11 L45,14 L12,12 L1,11 L4,9 L16,9 L20,10 L20,8 L16,7 L16,5 L20,5 L20,3 L1,3 L-1,6 L-3,6 L-2,1 Z M25,4 L24,6 L21,7 L21,10 L31,10 L37,11 L45,11 L46,10 L46,5 L37,4 L36,6 L35,4 L31,4 L31,7 L28,4 Z " fill="#adb5bd" transform="translate(766,413)"/>
<path d="M0,0 L7,0 L16,3 L23,7 L29,15 L34,20 L34,22 L36,22 L39,26 L46,27 L61,24 L75,23 L78,25 L77,26 L56,28 L49,29 L49,31 L57,30 L79,31 L84,33 L82,35 L74,34 L27,33 L27,31 L37,30 L40,31 L40,29 L35,27 L26,16 L21,12 L16,7 L6,2 L0,1 Z M41,28 L41,30 L43,30 L43,28 Z " fill="#adb5bd" transform="translate(369,415)"/>
<path d="M0,0 L14,0 L18,4 L16,14 L24,14 L24,16 L20,17 L8,16 L8,14 L-5,16 L-10,16 L-9,13 L2,11 L7,11 L7,13 L12,13 L12,8 L15,8 L12,3 L0,3 L0,5 L7,4 L6,7 L-4,9 L-8,10 L-8,8 L-5,5 L-13,6 L-33,4 L-34,2 L-6,2 Z M-4,4 L-4,6 L-1,6 L-1,4 Z " fill="#adb5bd" transform="translate(219,431)"/>
<path d="M0,0 L4,1 L1,1 L1,4 L-4,6 L-6,8 L-6,6 L-8,6 L-8,11 L-11,12 L-11,14 L-16,19 L-19,24 L-22,24 L-19,21 L-15,12 L-12,12 L-11,7 L-6,4 L0,3 Z " fill="#adb5bd" transform="translate(849,436)"/>
<path d="M0,0 L18,2 L54,7 L61,8 L62,12 L58,13 L-17,13 L-20,10 L-13,9 L47,10 L47,8 L28,7 L16,5 L0,4 Z " fill="#adb5bd" transform="translate(481,437)"/>
<path d="M0,0 L4,1 L4,4 L7,5 L5,1 L16,2 L19,4 L46,5 L49,4 L50,7 L48,9 L35,8 L-8,7 L-8,5 L0,5 Z " fill="#adb5bd" transform="translate(157,438)"/>
<path d="M0,0 L4,1 L6,2 L23,4 L26,5 L26,7 L16,8 L10,7 L10,5 L1,2 Z M12,4 L12,6 L18,6 L18,4 Z " fill="#adb5bd" transform="translate(581,439)"/>
<path d="M0,0 L14,0 L11,3 L2,3 L-3,11 L-5,18 L3,18 L4,21 L-17,21 L-62,20 L-63,18 L-56,17 L-31,17 L-7,18 L-9,11 L-12,8 L-15,7 L-35,6 L-34,4 L-15,4 L-7,8 L-7,10 L-5,9 L-2,2 Z " fill="#adb5bd" transform="translate(815,436)"/>
<path d="M0,0 L11,2 L30,3 L70,4 L77,5 L74,8 L49,7 L13,6 L1,5 Z " fill="#adb5bd" transform="translate(545,445)"/>
<path d="M0,0 L14,2 L17,5 L-6,5 L-15,7 L-20,10 L-28,13 L-40,22 L-42,26 L-44,26 L-46,30 L-51,40 L-54,52 L-56,62 L-58,61 L-58,52 L-56,43 L-54,38 L-50,30 L-43,20 L-41,20 L-40,17 L-26,8 L-13,2 Z " fill="#adb5bd" transform="translate(318,449)"/>
<path d="M0,0 L27,1 L35,3 L36,10 L34,16 L33,17 L21,18 L-19,19 L-36,20 L-53,20 L-57,18 L-57,16 L-37,16 L32,14 L32,6 L15,4 L3,3 Z " fill="#adb5bd" transform="translate(176,454)"/>
<path d="M0,0 L4,0 L4,3 L10,3 L9,5 L-8,5 L-11,3 L0,3 Z " fill="#adb5bd" transform="translate(335,454)"/>
<path d="M0,0 L4,1 L0,4 L-3,4 L-3,6 L-8,8 L-19,18 L-24,24 L-29,35 L-31,49 L-34,50 L-34,58 L-36,57 L-36,47 L-35,40 L-29,27 L-24,18 L-19,12 L-10,5 L-8,3 Z " fill="#adb5bd" transform="translate(872,458)"/>
<path d="M0,0 L23,0 L43,1 L43,3 L-13,3 L-13,1 Z " fill="#adb5bd" transform="translate(415,459)"/>
<path d="M0,0 L22,0 L31,1 L32,3 L0,3 Z " fill="#adb5bd" transform="translate(468,460)"/>
<path d="M0,0 L22,0 L28,1 L49,2 L62,4 L62,5 L41,5 L24,4 L21,3 L0,2 Z " fill="#adb5bd" transform="translate(114,461)"/>
<path d="M0,0 L20,0 L29,2 L41,8 L40,5 L44,7 L47,8 L47,10 L51,11 L59,25 L61,35 L62,40 L62,59 L57,72 L51,81 L47,86 L39,92 L29,97 L23,99 L16,99 L16,101 L18,101 L18,103 L13,101 L15,100 L15,98 L10,99 L2,99 L2,101 L10,100 L11,102 L-1,102 L-1,100 L-4,101 L-9,99 L-17,97 L-25,91 L-25,89 L-28,89 L-33,81 L-29,83 L-24,88 L-14,95 L-9,97 L-9,95 L-14,93 L-17,91 L-17,89 L-21,88 L-26,83 L-27,79 L-29,79 L-29,77 L-31,77 L-34,72 L-37,63 L-38,54 L-37,39 L-36,37 L-39,40 L-43,60 L-40,60 L-36,71 L-37,75 L-40,70 L-40,64 L-44,63 L-46,60 L-46,54 L-44,54 L-43,42 L-40,31 L-33,18 L-30,14 L-28,14 L-26,10 L-17,4 L-14,2 L-6,2 Z M6,2 L-6,5 L-18,12 L-25,19 L-31,28 L-34,37 L-34,58 L-28,74 L-26,74 L-24,79 L-20,84 L-11,90 L-1,95 L6,96 L18,96 L25,94 L32,91 L38,88 L45,82 L45,80 L48,80 L51,77 L54,68 L58,56 L58,40 L53,26 L47,17 L40,11 L29,5 L16,2 Z M-11,3 L-11,5 L-9,5 L-9,3 Z M-16,5 L-16,7 L-14,7 L-14,5 Z M41,8 L41,10 L43,10 L43,8 Z M-22,9 L-22,11 L-19,11 L-19,9 Z M-24,11 L-28,15 L-28,17 L-24,15 L-22,11 Z M45,11 L47,15 L52,21 L54,21 L52,17 L48,11 Z M-31,19 L-34,24 L-34,26 L-32,26 L-29,22 L-29,19 Z M-35,27 L-37,33 L-34,32 L-33,27 Z " fill="#adb5bd" transform="translate(308,461)"/>
<path d="M0,0 L18,0 L34,6 L37,7 L37,9 L41,11 L48,17 L52,22 L59,36 L61,52 L60,62 L52,78 L45,86 L39,91 L28,97 L21,99 L-4,99 L-14,95 L-22,89 L-27,85 L-37,71 L-41,60 L-42,38 L-39,27 L-34,19 L-31,18 L-30,14 L-26,14 L-27,10 L-21,7 L-16,3 L-8,1 Z M-1,3 L-14,8 L-25,16 L-30,22 L-36,34 L-38,41 L-38,56 L-34,68 L-29,77 L-21,86 L-8,93 L9,96 L27,93 L33,90 L41,84 L46,80 L51,73 L51,70 L54,69 L55,62 L57,48 L54,33 L47,20 L37,11 L28,6 L19,3 Z " fill="#adb5bd" transform="translate(888,463)"/>
<path d="M0,0 L8,0 L19,4 L28,10 L36,18 L42,29 L44,36 L44,50 L39,63 L25,78 L16,83 L5,85 L-4,85 L-14,82 L-20,79 L-30,70 L-35,63 L-40,50 L-41,44 L-41,36 L-39,30 L-35,31 L-35,29 L-38,29 L-36,24 L-32,17 L-23,8 L-14,3 L-8,1 Z M1,2 L1,4 L5,4 L5,2 Z M-11,4 L-11,7 L-9,7 L-9,4 Z M7,4 L-3,6 L-7,7 L-7,11 L-11,13 L-24,17 L-25,22 L-28,29 L-31,30 L-32,32 L-32,43 L-24,59 L-18,66 L-11,71 L4,72 L14,70 L23,63 L28,58 L33,47 L33,40 L31,35 L30,28 L26,22 L18,15 L11,12 L10,9 L5,9 L5,7 L12,8 L11,4 Z M16,6 L16,8 L18,8 L18,6 Z M-13,7 L-14,11 L-10,10 L-11,7 Z M13,8 L13,11 L19,14 L23,15 L21,11 L15,8 Z M-18,9 L-19,13 L-17,13 L-16,9 Z M25,15 L26,20 L30,25 L32,35 L34,35 L35,27 L33,27 L32,21 L27,15 Z M-30,22 L-30,25 L-28,25 L-28,22 Z M36,34 L36,40 L38,40 L32,59 L29,62 L20,69 L20,71 L25,72 L30,67 L31,64 L35,63 L38,58 L39,52 L41,42 L39,35 Z M-38,36 L-38,38 L-36,38 L-36,36 Z M-35,44 L-34,53 L-30,61 L-32,61 L-32,64 L-30,64 L-28,69 L-25,70 L-23,69 L-23,66 L-27,67 L-27,65 L-23,65 L-25,60 L-29,56 L-31,51 L-33,44 Z M-37,50 L-37,52 L-35,52 L-35,50 Z M-23,69 L-23,73 L-21,73 L-21,69 Z M-18,69 L-20,70 L-19,73 L-14,77 L-3,80 L5,80 L13,78 L14,80 L17,79 L18,77 L21,76 L21,72 L17,73 L16,74 L4,74 L0,75 L0,77 L-10,75 L-10,72 L-15,70 Z " fill="#adb5bd" transform="translate(318,467)"/>
<path d="M0,0 L34,1 L42,2 L42,3 L-3,3 L-3,1 Z " fill="#adb5bd" transform="translate(764,466)"/>
<path d="M0,0 L14,0 L28,2 L27,4 L7,4 L0,2 Z " fill="#adb5bd" transform="translate(1033,467)"/>
<path d="M0,0 L9,0 L23,4 L32,10 L39,16 L46,26 L48,29 L49,35 L49,49 L46,59 L39,70 L29,79 L21,83 L11,85 L-2,85 L-12,81 L-19,77 L-19,75 L-23,73 L-31,64 L-35,56 L-37,46 L-37,38 L-35,29 L-28,17 L-21,10 L-17,9 L-17,7 L-9,3 L-1,1 Z M1,3 L0,6 L10,6 L12,5 L12,3 Z M-11,6 L-11,8 L-9,8 L-9,6 Z M-3,7 L-7,9 L-8,12 L-15,17 L-22,19 L-23,22 L-25,22 L-24,25 L-25,33 L-30,35 L-29,45 L-26,46 L-23,45 L-19,31 L-15,25 L-11,21 L-1,16 L13,16 L18,19 L24,24 L29,33 L30,35 L30,46 L26,55 L22,61 L14,66 L6,68 L1,67 L-8,64 L-12,60 L-14,60 L-15,56 L-19,47 L-22,46 L-21,50 L-26,47 L-29,48 L-29,50 L-33,50 L-32,55 L-30,55 L-30,53 L-23,53 L-21,52 L-21,54 L-23,54 L-22,58 L-19,59 L-19,62 L-9,69 L0,72 L9,72 L17,70 L24,67 L29,62 L34,54 L37,41 L36,34 L33,33 L33,24 L28,20 L19,13 L12,12 L12,10 L2,10 L1,7 Z M10,7 L10,9 L12,9 L12,7 Z M22,7 L19,10 L19,8 L14,9 L14,11 L21,12 L24,9 L24,7 Z M-17,10 L-17,13 L-15,13 L-15,10 Z M23,11 L23,14 L29,19 L31,19 L30,15 L25,11 Z M31,13 L31,15 L33,15 L33,13 Z M-23,14 L-23,16 L-21,16 L-21,14 Z M5,17 L5,20 L7,20 L7,17 Z M-1,18 L-1,20 L4,20 L4,18 Z M10,18 L10,20 L16,23 L18,23 L16,19 L15,18 Z M-6,20 L-10,22 L-10,24 L-3,22 L-3,20 Z M34,20 L34,31 L37,30 L37,22 L36,20 Z M4,21 L2,22 L3,25 L5,25 L5,27 L12,27 L12,29 L16,29 L16,31 L21,31 L21,28 L13,23 L8,21 Z M-4,24 L-6,25 L-6,28 L0,29 L0,27 L2,27 L1,24 Z M40,24 L42,29 L44,35 L46,35 L45,28 L42,24 Z M-28,25 L-28,30 L-26,30 L-26,25 Z M-32,27 L-32,29 L-30,29 L-30,27 Z M38,27 L38,30 L40,30 L40,27 Z M-11,29 L-12,32 L-11,35 L-8,35 L-6,40 L-2,44 L1,49 L8,52 L0,51 L2,64 L5,65 L7,64 L10,57 L12,53 L12,50 L16,48 L17,43 L23,41 L27,37 L25,33 L15,34 L8,35 L2,33 L-6,29 Z M4,31 L4,33 L7,33 L7,31 Z M8,31 L8,33 L11,33 L11,31 Z M-34,33 L-34,35 L-32,35 L-32,33 Z M-16,33 L-15,37 L-15,44 L-16,49 L-14,50 L-11,56 L-7,60 L-3,61 L-4,56 L-8,55 L-10,49 L-10,38 L-11,35 L-14,35 L-14,33 Z M41,33 L41,35 L43,35 L43,33 Z M39,36 L39,38 L41,38 L42,41 L45,41 L45,37 Z M-35,40 L-35,42 L-33,42 L-33,40 Z M38,40 L38,42 L40,42 L40,40 Z M-7,42 L-6,47 L-5,49 L-3,49 L-4,44 L-5,42 Z M23,43 L22,50 L17,55 L10,60 L10,63 L14,62 L18,61 L18,59 L22,57 L26,52 L27,43 Z M39,43 L38,49 L39,53 L36,58 L36,60 L32,62 L27,67 L27,69 L32,69 L37,64 L41,56 L43,49 L43,43 Z M-34,47 L-34,49 L-32,49 L-32,47 Z M-8,48 L-7,51 L-5,51 L-6,48 Z M44,49 L40,60 L40,62 L42,62 L46,53 L46,49 Z M-5,52 L-5,54 L-3,54 L-3,52 Z M-28,55 L-28,59 L-26,59 L-25,64 L-19,74 L-16,74 L-16,72 L-19,69 L-17,69 L-17,71 L-12,71 L-13,68 L-20,67 L-21,63 L-24,56 Z M24,69 L24,71 L26,71 L26,69 Z M-12,71 L-13,75 L-6,78 L-3,79 L-4,82 L0,82 L1,78 L-2,75 L-10,71 Z M22,72 L22,76 L31,75 L32,72 Z M3,73 L3,75 L5,75 L5,82 L9,80 L9,75 L6,73 Z M16,73 L11,75 L11,79 L19,78 L20,73 Z " fill="#adb5bd" transform="translate(891,469)"/>
<path d="M0,0 L28,1 L49,3 L63,5 L66,6 L65,9 L64,8 L41,6 L35,5 L-10,3 L-11,1 Z " fill="#adb5bd" transform="translate(991,471)"/>
<path d="M0,0 L9,1 L18,4 L25,10 L25,12 L27,12 L29,16 L30,36 L27,41 L25,41 L23,45 L17,50 L7,53 L-1,53 L-5,52 L-10,50 L-18,40 L-20,31 L-23,30 L-23,20 L-17,11 L-16,9 L-14,9 L-14,7 L-6,3 L-1,3 Z M2,3 L1,6 L4,5 L4,3 Z M6,3 L6,5 L13,6 L13,4 Z M15,6 L16,9 L18,9 L17,6 Z M-6,8 L-5,17 L-4,21 L-4,30 L-3,33 L-6,34 L-8,40 L-10,40 L-9,46 L-3,45 L-3,43 L2,41 L6,39 L6,36 L13,36 L19,34 L26,33 L25,29 L9,22 L4,17 L1,11 L-3,8 Z M2,8 L2,11 L12,13 L13,15 L18,18 L21,19 L22,26 L25,27 L24,19 L20,12 L13,9 Z M-11,10 L-11,12 L-9,12 L-9,10 Z M-14,11 L-16,16 L-14,16 L-14,14 L-12,14 L-12,11 Z M-10,15 L-13,21 L-16,21 L-15,24 L-13,24 L-13,27 L-10,26 L-7,19 L-7,15 Z M10,16 L10,21 L13,21 L12,16 Z M14,21 L14,23 L19,24 L19,22 Z M-8,25 L-8,28 L-6,28 L-6,25 Z M-16,28 L-16,33 L-13,39 L-10,38 L-10,36 L-12,36 L-11,29 Z M15,36 L15,38 L17,38 L17,36 Z M20,36 L19,41 L14,43 L13,44 L-1,45 L-2,48 L6,49 L13,48 L15,47 L15,45 L20,45 L20,43 L22,43 L25,38 L25,36 Z M13,38 L11,39 L11,41 L9,41 L9,43 L14,41 L15,38 Z " fill="#adb5bd" transform="translate(315,481)"/>
<path d="M0,0 L2,0 L2,9 L4,9 L4,11 L6,11 L6,9 L9,9 L8,14 L6,14 L10,25 L16,27 L15,30 L13,30 L15,33 L21,33 L16,38 L14,38 L11,33 L11,30 L9,30 L5,22 L4,19 L4,12 L1,11 L0,7 Z " fill="#adb5bd" transform="translate(824,520)"/>
<path d="M0,0 L3,1 L7,7 L2,6 L-1,4 L-1,9 L-5,5 L-5,3 L1,3 Z " fill="#adb5bd" transform="translate(270,550)"/>
</svg>
